<svg width="19" height="19" viewBox="0 0 19 19" fill="none" xmlns="http://www.w3.org/2000/svg">
<path d="M17.7651 9.17829C17.7651 10.4884 17.4222 11.7457 16.7979 12.8404L15.6505 11.6929C16.0198 10.9192 16.2176 10.0619 16.2176 9.1739C16.2176 6.8351 14.8372 4.71611 12.6919 3.76213C12.4105 3.63903 12.2303 3.35767 12.2303 3.05873C12.2303 2.79496 12.3577 2.55316 12.582 2.40809C12.8018 2.26741 13.0743 2.24103 13.3161 2.35094C16.0198 3.54671 17.7695 6.22402 17.7695 9.1739L17.7651 9.17829Z" fill="black"/>
<path d="M14.635 9.18705C14.635 9.63107 14.5559 10.0575 14.4064 10.4488L12.2303 8.27264V5.77557C13.6327 6.27235 14.635 7.6132 14.635 9.18705Z" fill="black"/>
<path d="M10.3794 1.44968V6.42182L6.96356 3.00595L9.53976 1.03203C9.88266 0.772657 10.3794 1.01445 10.3794 1.44968Z" fill="black"/>
<path d="M2.02667 5.42828L10.3795 13.7855V17.0256C10.3795 17.4608 9.88274 17.707 9.53984 17.4432L3.79835 13.0514H1.09906C0.492379 13.0514 0 12.559 0 11.9523V6.52734C0 5.92066 0.487982 5.42828 1.09906 5.42828H2.02227H2.02667Z" fill="black"/>
<path d="M17.7652 18.3576C17.5409 18.3576 17.3211 18.2741 17.1497 18.1026L0.527503 1.48043C0.188993 1.14192 0.188993 0.592393 0.527503 0.253883C0.866014 -0.0846276 1.41554 -0.0846276 1.75405 0.253883L18.3762 16.8761C18.7147 17.2146 18.7147 17.7641 18.3762 18.1026C18.2048 18.2741 17.985 18.3576 17.7608 18.3576H17.7652Z" fill="black"/>
</svg>
